<?xml version="1.0" encoding="UTF-8" standalone="no"?>
<!DOCTYPE svg PUBLIC "-//W3C//DTD SVG 1.1//EN"
 "http://www.w3.org/Graphics/SVG/1.1/DTD/svg11.dtd">
<!-- Generated by graphviz version 15.0.0 (20260523.1842)
 -->
<!-- Title: AnafesticaClassDiagram Pages: 1 -->
<svg width="2045pt" height="2167pt"
 viewBox="0.00 0.00 2045.00 2167.00" xmlns="http://www.w3.org/2000/svg" xmlns:xlink="http://www.w3.org/1999/xlink">
<g id="graph0" class="graph" transform="scale(1 1) rotate(0) translate(25.2 2141.7)">
<title>AnafesticaClassDiagram</title>
<polygon fill="white" stroke="none" points="-25.2,25.2 -25.2,-2141.7 2020.2,-2141.7 2020.2,25.2 -25.2,25.2"/>
<text xml:space="preserve" text-anchor="middle" x="997.5" y="-2085.9" font-family="Arial" font-size="28.00">Anafestica Library &#45; Class Diagram</text>
<g id="clust1" class="cluster">
<title>cluster_core</title>
<path fill="white" stroke="#c8c8c8" stroke-dasharray="5,2" d="M1391,-450.62C1391,-450.62 1704,-450.62 1704,-450.62 1710,-450.62 1716,-456.62 1716,-462.62 1716,-462.62 1716,-1730 1716,-1730 1716,-1736 1710,-1742 1704,-1742 1704,-1742 1391,-1742 1391,-1742 1385,-1742 1379,-1736 1379,-1730 1379,-1730 1379,-462.62 1379,-462.62 1379,-456.62 1385,-450.62 1391,-450.62"/>
<text xml:space="preserve" text-anchor="middle" x="1547.5" y="-1711.4" font-family="Arial" font-size="28.00">Core configuration model</text>
</g>
<g id="clust2" class="cluster">
<title>cluster_backends</title>
<path fill="white" stroke="#c8c8c8" stroke-dasharray="5,2" d="M928,-8C928,-8 1204,-8 1204,-8 1210,-8 1216,-14 1216,-20 1216,-20 1216,-688.5 1216,-688.5 1216,-694.5 1210,-700.5 1204,-700.5 1204,-700.5 928,-700.5 928,-700.5 922,-700.5 916,-694.5 916,-688.5 916,-688.5 916,-20 916,-20 916,-14 922,-8 928,-8"/>
<text xml:space="preserve" text-anchor="middle" x="1066" y="-669.9" font-family="Arial" font-size="28.00">Storage backends</text>
</g>
<g id="clust3" class="cluster">
<title>cluster_singletons</title>
<path fill="white" stroke="#c8c8c8" stroke-dasharray="5,2" d="M20,-244.12C20,-244.12 545,-244.12 545,-244.12 551,-244.12 557,-250.12 557,-256.12 557,-256.12 557,-1660.62 557,-1660.62 557,-1666.62 551,-1672.62 545,-1672.62 545,-1672.62 20,-1672.62 20,-1672.62 14,-1672.62 8,-1666.62 8,-1660.62 8,-1660.62 8,-256.12 8,-256.12 8,-250.12 14,-244.12 20,-244.12"/>
<text xml:space="preserve" text-anchor="middle" x="282.5" y="-1642.03" font-family="Arial" font-size="28.00">Singleton facades and encrypted wrappers</text>
</g>
<g id="clust4" class="cluster">
<title>cluster_forms</title>
<path fill="white" stroke="#c8c8c8" stroke-dasharray="5,2" d="M974,-1438.5C974,-1438.5 1241,-1438.5 1241,-1438.5 1247,-1438.5 1253,-1444.5 1253,-1450.5 1253,-1450.5 1253,-2027.38 1253,-2027.38 1253,-2033.38 1247,-2039.38 1241,-2039.38 1241,-2039.38 974,-2039.38 974,-2039.38 968,-2039.38 962,-2033.38 962,-2027.38 962,-2027.38 962,-1450.5 962,-1450.5 962,-1444.5 968,-1438.5 974,-1438.5"/>
<text xml:space="preserve" text-anchor="middle" x="1107.5" y="-2008.78" font-family="Arial" font-size="28.00">Application integration</text>
</g>
<g id="clust5" class="cluster">
<title>cluster_utilities</title>
<path fill="white" stroke="#c8c8c8" stroke-dasharray="5,2" d="M604,-202.5C604,-202.5 896,-202.5 896,-202.5 902,-202.5 908,-208.5 908,-214.5 908,-214.5 908,-958.12 908,-958.12 908,-964.12 902,-970.12 896,-970.12 896,-970.12 604,-970.12 604,-970.12 598,-970.12 592,-964.12 592,-958.12 592,-958.12 592,-214.5 592,-214.5 592,-208.5 598,-202.5 604,-202.5"/>
<text xml:space="preserve" text-anchor="middle" x="750" y="-939.52" font-family="Arial" font-size="28.00">Utilities</text>
</g>
<g id="clust6" class="cluster">
<title>cluster_patterns</title>
<path fill="white" stroke="#c8c8c8" stroke-dasharray="5,2" d="M1601,-1789.5C1601,-1789.5 1975,-1789.5 1975,-1789.5 1981,-1789.5 1987,-1795.5 1987,-1801.5 1987,-1801.5 1987,-2057 1987,-2057 1987,-2063 1981,-2069 1975,-2069 1975,-2069 1601,-2069 1601,-2069 1595,-2069 1589,-2063 1589,-2057 1589,-2057 1589,-1801.5 1589,-1801.5 1589,-1795.5 1595,-1789.5 1601,-1789.5"/>
<text xml:space="preserve" text-anchor="middle" x="1788" y="-2038.4" font-family="Arial" font-size="28.00">Patterns</text>
</g>
<!-- TConfig -->
<g id="node1" class="node">
<title>TConfig</title>
<text xml:space="preserve" text-anchor="start" x="1432.88" y="-1675.2" font-family="Arial" font-weight="bold" font-style="italic" font-size="14.00">Anafestica::TConfig</text>
<text xml:space="preserve" text-anchor="start" x="1467.38" y="-1650" font-family="Arial" font-size="10.00">&lt;&lt;abstract&gt;&gt;</text>
<text xml:space="preserve" text-anchor="start" x="1393.88" y="-1623" font-family="Arial" font-size="14.00">&#45; readOnly_: bool</text>
<text xml:space="preserve" text-anchor="start" x="1393.88" y="-1595.25" font-family="Arial" font-size="14.00">&#45; flushAllItems_: bool</text>
<text xml:space="preserve" text-anchor="start" x="1393.88" y="-1567.5" font-family="Arial" font-size="14.00">&#45; root_: unique_ptr&lt;TConfigNode&gt;</text>
<text xml:space="preserve" text-anchor="start" x="1393.88" y="-1539.75" font-family="Arial" font-size="14.00">+ GetRootNode(): TConfigNode&amp;</text>
<text xml:space="preserve" text-anchor="start" x="1393.88" y="-1512" font-family="Arial" font-size="14.00">+ Flush(): void</text>
<text xml:space="preserve" text-anchor="start" x="1393.88" y="-1484.25" font-family="Arial" font-size="14.00"># DoCreateValueList(path)</text>
<text xml:space="preserve" text-anchor="start" x="1393.88" y="-1456.5" font-family="Arial" font-size="14.00"># DoCreateNodeList(path)</text>
<text xml:space="preserve" text-anchor="start" x="1393.88" y="-1428.75" font-family="Arial" font-size="14.00"># DoSaveValueList(path, values)</text>
<text xml:space="preserve" text-anchor="start" x="1393.88" y="-1401" font-family="Arial" font-size="14.00"># DoDeleteNode(path)</text>
<text xml:space="preserve" text-anchor="start" x="1393.88" y="-1373.25" font-family="Arial" font-size="14.00"># DoFlush()</text>
<polygon fill="#373435" stroke="#373435" points="1386.88,-1641.75 1386.88,-1641.75 1607.12,-1641.75 1607.12,-1641.75 1386.88,-1641.75"/>
<polygon fill="#373435" stroke="#373435" points="1386.88,-1558.5 1386.88,-1558.5 1607.12,-1558.5 1607.12,-1558.5 1386.88,-1558.5"/>
<polygon fill="none" stroke="#373435" points="1386.88,-1363.25 1386.88,-1694.5 1607.12,-1694.5 1607.12,-1363.25 1386.88,-1363.25"/>
</g>
<!-- TConfigNode -->
<g id="node2" class="node">
<title>TConfigNode</title>
<text xml:space="preserve" text-anchor="start" x="1493.62" y="-1262.45" font-family="Arial" font-weight="bold" font-size="14.00">TConfigNode</text>
<text xml:space="preserve" text-anchor="start" x="1445.62" y="-1234.25" font-family="Arial" font-size="14.00">&#45; valueItems_: ValueContType</text>
<text xml:space="preserve" text-anchor="start" x="1445.62" y="-1206.5" font-family="Arial" font-size="14.00">&#45; nodeItems_: NodeContType</text>
<text xml:space="preserve" text-anchor="start" x="1445.62" y="-1178.75" font-family="Arial" font-size="14.00">+ GetSubNode(id)</text>
<text xml:space="preserve" text-anchor="start" x="1445.62" y="-1151" font-family="Arial" font-size="14.00">+ GetItem&lt;T&gt;(id)</text>
<text xml:space="preserve" text-anchor="start" x="1445.62" y="-1123.25" font-family="Arial" font-size="14.00">+ PutItem&lt;T&gt;(id, value)</text>
<text xml:space="preserve" text-anchor="start" x="1445.62" y="-1095.5" font-family="Arial" font-size="14.00">+ Enumerate*()</text>
<text xml:space="preserve" text-anchor="start" x="1445.62" y="-1067.75" font-family="Arial" font-size="14.00">+ Read(reader, path)</text>
<text xml:space="preserve" text-anchor="start" x="1445.62" y="-1040" font-family="Arial" font-size="14.00">+ Write(writer, path)</text>
<polygon fill="#373435" stroke="#373435" points="1438.62,-1253 1438.62,-1253 1633.38,-1253 1633.38,-1253 1438.62,-1253"/>
<polygon fill="#373435" stroke="#373435" points="1438.62,-1197.5 1438.62,-1197.5 1633.38,-1197.5 1633.38,-1197.5 1438.62,-1197.5"/>
<polygon fill="none" stroke="#373435" points="1438.62,-1030 1438.62,-1281.75 1633.38,-1281.75 1633.38,-1030 1438.62,-1030"/>
</g>
<!-- TConfig&#45;&gt;TConfigNode -->
<g id="edge14" class="edge">
<title>TConfig&#45;&gt;TConfigNode</title>
<path fill="none" stroke="#373435" d="M1565,-1352.72C1565,-1352.72 1565,-1281.58 1565,-1281.58"/>
<polygon fill="#373435" stroke="#373435" points="1565,-1352.87 1568.2,-1357.67 1565,-1362.47 1561.8,-1357.67 1565,-1352.87"/>
<text xml:space="preserve" text-anchor="middle" x="1509.38" y="-1318.8" font-family="Arial" font-size="11.00">root</text>
</g>
<!-- CfgConts -->
<g id="node3" class="node">
<title>CfgConts</title>
<text xml:space="preserve" text-anchor="start" x="1423.62" y="-889.45" font-family="Arial" font-weight="bold" font-size="14.00">CfgConts.h</text>
<text xml:space="preserve" text-anchor="start" x="1414.25" y="-861.25" font-family="Arial" font-size="14.00">ValueContType</text>
<text xml:space="preserve" text-anchor="start" x="1414.25" y="-833.5" font-family="Arial" font-size="14.00">NodeContType</text>
<text xml:space="preserve" text-anchor="start" x="1414.25" y="-805.75" font-family="Arial" font-size="14.00">Operation</text>
<polygon fill="#777777" stroke="#777777" points="1407.25,-880 1407.25,-880 1512.75,-880 1512.75,-880 1407.25,-880"/>
<polygon fill="none" stroke="#777777" points="1407.25,-795.75 1407.25,-908.75 1512.75,-908.75 1512.75,-795.75 1407.25,-795.75"/>
</g>
<!-- TConfig&#45;&gt;CfgConts -->
<!-- BackendAPI -->
<g id="node6" class="node">
<title>BackendAPI</title>
<text xml:space="preserve" text-anchor="start" x="994" y="-318.07" font-family="Arial" font-weight="bold" font-size="14.00">Common backend API</text>
<text xml:space="preserve" text-anchor="start" x="994" y="-289.88" font-family="Arial" font-size="14.00">+ TConfig(file, flags...)</text>
<text xml:space="preserve" text-anchor="start" x="994" y="-262.12" font-family="Arial" font-size="14.00">+ Migrate(load, save)</text>
<text xml:space="preserve" text-anchor="start" x="994" y="-234.38" font-family="Arial" font-size="14.00">+ ~TConfig(): Flush()</text>
<polygon fill="#777777" stroke="#777777" points="987,-308.62 987,-308.62 1145,-308.62 1145,-308.62 987,-308.62"/>
<polygon fill="none" stroke="#777777" points="987,-224.38 987,-337.38 1145,-337.38 1145,-224.38 987,-224.38"/>
</g>
<!-- TConfig&#45;&gt;BackendAPI -->
<g id="edge18" class="edge">
<title>TConfig&#45;&gt;BackendAPI</title>
<path fill="none" stroke="#373435" stroke-dasharray="5,2" d="M1386.98,-1398C1335.62,-1398 1285.62,-1398 1285.62,-1398 1285.62,-1398 1285.62,-281 1285.62,-281 1285.62,-281 1154.49,-281 1154.49,-281"/>
<polygon fill="#373435" stroke="#373435" points="1154.49,-278.2 1146.49,-281 1154.49,-283.8 1154.49,-278.2"/>
<text xml:space="preserve" text-anchor="middle" x="1320.38" y="-848.55" font-family="Arial" font-size="11.00">template hooks</text>
</g>
<!-- TConfigNode&#45;&gt;TConfig -->
<!-- TConfigNode&#45;&gt;TConfigNode -->
<g id="edge15" class="edge">
<title>TConfigNode&#45;&gt;TConfigNode</title>
<path fill="none" stroke="#373435" d="M1480.75,-1292.34C1480.75,-1292.34 1480.75,-1323 1480.75,-1323 1480.75,-1323 1428.17,-1323 1428.17,-1323 1428.17,-1323 1428.17,-989 1428.17,-989 1428.17,-989 1488.04,-989 1488.04,-989 1488.04,-989 1488.04,-1006.54 1488.04,-1030.25"/>
<polygon fill="#373435" stroke="#373435" points="1480.75,-1292.19 1477.55,-1287.39 1480.75,-1282.59 1483.95,-1287.39 1480.75,-1292.19"/>
</g>
<!-- TConfigNode&#45;&gt;CfgConts -->
<g id="edge16" class="edge">
<title>TConfigNode&#45;&gt;CfgConts</title>
<path fill="none" stroke="#373435" d="M1463.33,-1030.19C1463.33,-1030.19 1463.33,-917.92 1463.33,-917.92"/>
<polygon fill="#373435" stroke="#373435" points="1463.33,-909.92 1466.93,-917.92 1463.33,-912.7 1463.33,-917.92 1463.33,-917.92 1463.33,-917.92 1463.33,-912.7 1459.73,-917.92 1463.33,-909.92"/>
<text xml:space="preserve" text-anchor="middle" x="1509.25" y="-985.55" font-family="Arial" font-size="11.00">uses</text>
</g>
<!-- CfgNodeValueType -->
<g id="node4" class="node">
<title>CfgNodeValueType</title>
<text xml:space="preserve" text-anchor="start" x="1398.88" y="-607.83" font-family="Arial" font-weight="bold" font-size="14.00">CfgNodeValueType</text>
<text xml:space="preserve" text-anchor="start" x="1393.62" y="-579.62" font-family="Arial" font-size="14.00">variant / boost::variant</text>
<text xml:space="preserve" text-anchor="start" x="1393.62" y="-551.88" font-family="Arial" font-size="14.00">TypeTag</text>
<text xml:space="preserve" text-anchor="start" x="1393.62" y="-524.12" font-family="Arial" font-size="14.00">numeric, bool, String</text>
<text xml:space="preserve" text-anchor="start" x="1393.62" y="-496.38" font-family="Arial" font-size="14.00">TDateTime, Currency</text>
<text xml:space="preserve" text-anchor="start" x="1393.62" y="-468.62" font-family="Arial" font-size="14.00">bytes, string vectors</text>
<polygon fill="#777777" stroke="#777777" points="1386.62,-598.38 1386.62,-598.38 1533.38,-598.38 1533.38,-598.38 1386.62,-598.38"/>
<polygon fill="none" stroke="#777777" points="1386.62,-458.62 1386.62,-627.12 1533.38,-627.12 1533.38,-458.62 1386.62,-458.62"/>
</g>
<!-- TConfigNode&#45;&gt;CfgNodeValueType -->
<g id="edge17" class="edge">
<title>TConfigNode&#45;&gt;CfgNodeValueType</title>
<path fill="none" stroke="#373435" d="M1523.06,-1030.35C1523.06,-1030.35 1523.06,-636.18 1523.06,-636.18"/>
<polygon fill="#373435" stroke="#373435" points="1523.06,-628.18 1526.66,-636.18 1523.06,-630.96 1523.06,-636.18 1523.06,-636.18 1523.06,-636.18 1523.06,-630.96 1519.46,-636.18 1523.06,-628.18"/>
<text xml:space="preserve" text-anchor="middle" x="1627.62" y="-848.55" font-family="Arial" font-size="11.00">stores</text>
</g>
<!-- CfgConts&#45;&gt;CfgNodeValueType -->
<!-- PlainBackends -->
<g id="node5" class="node">
<title>PlainBackends</title>
<text xml:space="preserve" text-anchor="start" x="997.38" y="-633.7" font-family="Arial" font-weight="bold" font-size="14.00">TConfig descendants</text>
<text xml:space="preserve" text-anchor="start" x="1012.75" y="-608.5" font-family="Arial" font-size="10.00">&lt;&lt;concrete backends&gt;&gt;</text>
<text xml:space="preserve" text-anchor="start" x="931.38" y="-581.5" font-family="Arial" font-size="14.00">Registry::TConfig &#45; Windows registry</text>
<text xml:space="preserve" text-anchor="start" x="931.38" y="-553.75" font-family="Arial" font-size="14.00">JSON::TConfig &#45; .json, optional explicit tags</text>
<text xml:space="preserve" text-anchor="start" x="931.38" y="-526" font-family="Arial" font-size="14.00">BSON::TConfig &#45; .bson, binary JSON stream</text>
<text xml:space="preserve" text-anchor="start" x="931.38" y="-498.25" font-family="Arial" font-size="14.00">YAML::TConfig &#45; .yaml, fkYAML, flush&#45;all</text>
<text xml:space="preserve" text-anchor="start" x="931.38" y="-470.5" font-family="Arial" font-size="14.00">XML::TConfig &#45; .xml, XML document</text>
<text xml:space="preserve" text-anchor="start" x="931.38" y="-442.75" font-family="Arial" font-size="14.00">INIFile::TConfig &#45; .ini, section/key layout</text>
<polygon fill="#547aa5" stroke="#547aa5" points="924.38,-600.25 924.38,-600.25 1207.62,-600.25 1207.62,-600.25 924.38,-600.25"/>
<polygon fill="none" stroke="#547aa5" points="924.38,-432.75 924.38,-653 1207.62,-653 1207.62,-432.75 924.38,-432.75"/>
</g>
<!-- PlainBackends&#45;&gt;TConfig -->
<g id="edge12" class="edge">
<title>PlainBackends&#45;&gt;TConfig</title>
<path fill="none" stroke="#373435" d="M1207.36,-640C1297.34,-640 1397.06,-640 1397.06,-640 1397.06,-640 1397.06,-1353.99 1397.06,-1353.99"/>
<polygon fill="none" stroke="#373435" points="1394.26,-1353.99 1397.06,-1361.99 1399.86,-1353.99 1394.26,-1353.99"/>
<text xml:space="preserve" text-anchor="middle" x="1205.25" y="-985.55" font-family="Arial" font-size="11.00">inherits</text>
</g>
<!-- PlainBackends&#45;&gt;BackendAPI -->
<!-- RAIIHelpers -->
<g id="node7" class="node">
<title>RAIIHelpers</title>
<text xml:space="preserve" text-anchor="start" x="996.62" y="-109.7" font-family="Arial" font-weight="bold" font-size="14.00">Backend RAII helpers</text>
<text xml:space="preserve" text-anchor="start" x="977.88" y="-81.5" font-family="Arial" font-size="14.00">RegObjRAII, BSONObjRAII</text>
<text xml:space="preserve" text-anchor="start" x="977.88" y="-53.75" font-family="Arial" font-size="14.00">YAMLObjRAII, IniFileRAII</text>
<text xml:space="preserve" text-anchor="start" x="977.88" y="-26" font-family="Arial" font-size="14.00">COM/XML document lifetime</text>
<polygon fill="#777777" stroke="#777777" points="970.88,-100.25 970.88,-100.25 1161.12,-100.25 1161.12,-100.25 970.88,-100.25"/>
<polygon fill="none" stroke="#777777" points="970.88,-16 970.88,-129 1161.12,-129 1161.12,-16 970.88,-16"/>
</g>
<!-- BackendAPI&#45;&gt;RAIIHelpers -->
<!-- BackendAPI&#45;&gt;RAIIHelpers -->
<g id="edge19" class="edge">
<title>BackendAPI&#45;&gt;RAIIHelpers</title>
<path fill="none" stroke="#373435" stroke-dasharray="5,2" d="M1039.67,-224.49C1039.67,-224.49 1039.67,-138.45 1039.67,-138.45"/>
<polygon fill="#373435" stroke="#373435" points="1042.47,-138.45 1039.67,-130.45 1036.87,-138.45 1042.47,-138.45"/>
<text xml:space="preserve" text-anchor="middle" x="1161.38" y="-166.05" font-family="Arial" font-size="11.00">resource lifetime</text>
</g>
<!-- SingletonFns -->
<g id="node8" class="node">
<title>SingletonFns</title>
<text xml:space="preserve" text-anchor="start" x="292.75" y="-1605.83" font-family="Arial" font-weight="bold" font-size="14.00">GetConfigSingleton()</text>
<text xml:space="preserve" text-anchor="start" x="306.62" y="-1580.62" font-family="Arial" font-size="10.00">&lt;&lt;namespace helpers&gt;&gt;</text>
<text xml:space="preserve" text-anchor="start" x="248.5" y="-1553.62" font-family="Arial" font-size="14.00">Registry::GetConfigSingleton()</text>
<text xml:space="preserve" text-anchor="start" x="248.5" y="-1525.88" font-family="Arial" font-size="14.00">JSON / BSON / YAML / XML / INIFile</text>
<text xml:space="preserve" text-anchor="start" x="248.5" y="-1498.12" font-family="Arial" font-size="14.00">derive path from version info</text>
<text xml:space="preserve" text-anchor="start" x="248.5" y="-1470.38" font-family="Arial" font-size="14.00">migrate previous&#45;version file</text>
<text xml:space="preserve" text-anchor="start" x="248.5" y="-1442.62" font-family="Arial" font-size="14.00">return static backend instance</text>
<polygon fill="#547aa5" stroke="#547aa5" points="241.5,-1572.38 241.5,-1572.38 480.5,-1572.38 480.5,-1572.38 241.5,-1572.38"/>
<polygon fill="none" stroke="#547aa5" points="241.5,-1432.62 241.5,-1625.12 480.5,-1625.12 480.5,-1432.62 241.5,-1432.62"/>
</g>
<!-- SingletonFns&#45;&gt;PlainBackends -->
<g id="edge21" class="edge">
<title>SingletonFns&#45;&gt;PlainBackends</title>
<path fill="none" stroke="#373435" stroke-dasharray="5,2" d="M480.44,-1442C650.63,-1442 942.54,-1442 942.54,-1442 942.54,-1442 942.54,-662.19 942.54,-662.19"/>
<polygon fill="#373435" stroke="#373435" points="945.34,-662.19 942.54,-654.19 939.74,-662.19 945.34,-662.19"/>
<text xml:space="preserve" text-anchor="middle" x="966.38" y="-985.55" font-family="Arial" font-size="11.00">constructs</text>
</g>
<!-- SingletonClasses -->
<g id="node9" class="node">
<title>SingletonClasses</title>
<text xml:space="preserve" text-anchor="start" x="302.12" y="-1218.95" font-family="Arial" font-weight="bold" font-size="14.00">TConfig*Singleton</text>
<text xml:space="preserve" text-anchor="start" x="334.38" y="-1193.75" font-family="Arial" font-size="10.00">&lt;&lt;facade&gt;&gt;</text>
<text xml:space="preserve" text-anchor="start" x="250" y="-1166.75" font-family="Arial" font-size="14.00">+ static GetConfig(): TConfig&amp;</text>
<text xml:space="preserve" text-anchor="start" x="250" y="-1139" font-family="Arial" font-size="14.00">TConfigRegistrySingleton</text>
<text xml:space="preserve" text-anchor="start" x="250" y="-1111.25" font-family="Arial" font-size="14.00">TConfigJSON / BSON / YAML / XML</text>
<text xml:space="preserve" text-anchor="start" x="250" y="-1083.5" font-family="Arial" font-size="14.00">TConfigINIFileSingleton</text>
<polygon fill="#373435" stroke="#373435" points="243,-1185.5 243,-1185.5 479,-1185.5 479,-1185.5 243,-1185.5"/>
<polygon fill="#373435" stroke="#373435" points="243,-1157.75 243,-1157.75 479,-1157.75 479,-1157.75 243,-1157.75"/>
<polygon fill="none" stroke="#373435" points="243,-1073.5 243,-1238.25 479,-1238.25 479,-1073.5 243,-1073.5"/>
</g>
<!-- SingletonFns&#45;&gt;SingletonClasses -->
<!-- Migration -->
<g id="node12" class="node">
<title>Migration</title>
<text xml:space="preserve" text-anchor="start" x="110.88" y="-290.32" font-family="Arial" font-weight="bold" font-size="14.00">Migration.h / GetMigrationSource()</text>
<text xml:space="preserve" text-anchor="start" x="52.75" y="-262.12" font-family="Arial" font-size="14.00">destination wins; old version source is loaded then saved</text>
<polygon fill="#777777" stroke="#777777" points="45.75,-280.88 45.75,-280.88 400.25,-280.88 400.25,-280.88 45.75,-280.88"/>
<polygon fill="none" stroke="#777777" points="45.75,-252.12 45.75,-309.62 400.25,-309.62 400.25,-252.12 45.75,-252.12"/>
</g>
<!-- SingletonFns&#45;&gt;Migration -->
<g id="edge23" class="edge">
<title>SingletonFns&#45;&gt;Migration</title>
<path fill="none" stroke="#373435" stroke-dasharray="5,2" d="M241.64,-1529C190.42,-1529 142.12,-1529 142.12,-1529 142.12,-1529 142.12,-319.1 142.12,-319.1"/>
<polygon fill="#373435" stroke="#373435" points="144.93,-319.1 142.13,-311.1 139.33,-319.1 144.93,-319.1"/>
<text xml:space="preserve" text-anchor="middle" x="177.25" y="-848.55" font-family="Arial" font-size="11.00">uses</text>
</g>
<!-- FileVersionInfo -->
<g id="node15" class="node">
<title>FileVersionInfo</title>
<text xml:space="preserve" text-anchor="start" x="697.5" y="-903.33" font-family="Arial" font-weight="bold" font-size="14.00">TFileVersionInfo</text>
<text xml:space="preserve" text-anchor="start" x="692.62" y="-875.12" font-family="Arial" font-size="14.00">CompanyName()</text>
<text xml:space="preserve" text-anchor="start" x="692.62" y="-847.38" font-family="Arial" font-size="14.00">ProductName()</text>
<text xml:space="preserve" text-anchor="start" x="692.62" y="-819.62" font-family="Arial" font-size="14.00">ProductVersion()</text>
<text xml:space="preserve" text-anchor="start" x="692.62" y="-791.88" font-family="Arial" font-size="14.00">OriginalFileName()</text>
<polygon fill="#777777" stroke="#777777" points="685.62,-893.88 685.62,-893.88 814.38,-893.88 814.38,-893.88 685.62,-893.88"/>
<polygon fill="none" stroke="#777777" points="685.62,-781.88 685.62,-922.62 814.38,-922.62 814.38,-781.88 685.62,-781.88"/>
</g>
<!-- SingletonFns&#45;&gt;FileVersionInfo -->
<g id="edge25" class="edge">
<title>SingletonFns&#45;&gt;FileVersionInfo</title>
<path fill="none" stroke="#373435" stroke-dasharray="5,2" d="M480.36,-1437C594.7,-1437 750,-1437 750,-1437 750,-1437 750,-932.01 750,-932.01"/>
<polygon fill="#373435" stroke="#373435" points="752.8,-932.01 750,-924.01 747.2,-932.01 752.8,-932.01"/>
<text xml:space="preserve" text-anchor="middle" x="693.25" y="-1152.17" font-family="Arial" font-size="11.00">derives path</text>
</g>
<!-- SingletonClasses&#45;&gt;SingletonFns -->
<g id="edge20" class="edge">
<title>SingletonClasses&#45;&gt;SingletonFns</title>
<path fill="none" stroke="#373435" d="M400.33,-1238.19C400.33,-1238.19 400.33,-1423.7 400.33,-1423.7"/>
<polygon fill="#373435" stroke="#373435" points="400.33,-1431.7 396.73,-1423.7 400.33,-1428.92 400.33,-1423.7 400.33,-1423.7 400.33,-1423.7 400.33,-1428.92 403.93,-1423.7 400.33,-1431.7"/>
<text xml:space="preserve" text-anchor="middle" x="339.12" y="-1318.8" font-family="Arial" font-size="11.00">facade</text>
</g>
<!-- CryptBackends -->
<g id="node10" class="node">
<title>CryptBackends</title>
<text xml:space="preserve" text-anchor="start" x="310.75" y="-929.2" font-family="Arial" font-weight="bold" font-size="14.00">*Crypt::TConfig</text>
<text xml:space="preserve" text-anchor="start" x="306.25" y="-904" font-family="Arial" font-size="10.00">&lt;&lt;encrypted wrappers&gt;&gt;</text>
<text xml:space="preserve" text-anchor="start" x="245.5" y="-877" font-family="Arial" font-size="14.00">JSONCrypt::TConfig : JSON::TConfig</text>
<text xml:space="preserve" text-anchor="start" x="245.5" y="-849.25" font-family="Arial" font-size="14.00">BSONCrypt::TConfig : BSON::TConfig</text>
<text xml:space="preserve" text-anchor="start" x="245.5" y="-821.5" font-family="Arial" font-size="14.00">YAMLCrypt::TConfig : YAML::TConfig</text>
<text xml:space="preserve" text-anchor="start" x="245.5" y="-793.75" font-family="Arial" font-size="14.00">XMLCrypt::TConfig : XML::TConfig</text>
<text xml:space="preserve" text-anchor="start" x="245.5" y="-766" font-family="Arial" font-size="14.00">INIFileCrypt::TConfig : INIFile::TConfig</text>
<polygon fill="#547aa5" stroke="#547aa5" points="238.5,-895.75 238.5,-895.75 483.5,-895.75 483.5,-895.75 238.5,-895.75"/>
<polygon fill="none" stroke="#547aa5" points="238.5,-756 238.5,-948.5 483.5,-948.5 483.5,-756 238.5,-756"/>
</g>
<!-- SingletonClasses&#45;&gt;CryptBackends -->
<!-- CryptBackends&#45;&gt;PlainBackends -->
<g id="edge13" class="edge">
<title>CryptBackends&#45;&gt;PlainBackends</title>
<path fill="none" stroke="#373435" d="M475.25,-756.23C475.25,-699.63 475.25,-639 475.25,-639 475.25,-639 914.99,-639 914.99,-639"/>
<polygon fill="none" stroke="#373435" points="914.99,-641.8 922.99,-639 914.99,-636.2 914.99,-641.8"/>
<text xml:space="preserve" text-anchor="middle" x="1116.38" y="-711.55" font-family="Arial" font-size="11.00">inherits / wraps</text>
</g>
<!-- CryptSingletons -->
<g id="node11" class="node">
<title>CryptSingletons</title>
<text xml:space="preserve" text-anchor="start" x="284.5" y="-605.95" font-family="Arial" font-weight="bold" font-size="14.00">TConfig*CryptSingleton</text>
<text xml:space="preserve" text-anchor="start" x="334.38" y="-580.75" font-family="Arial" font-size="10.00">&lt;&lt;facade&gt;&gt;</text>
<text xml:space="preserve" text-anchor="start" x="270.25" y="-553.75" font-family="Arial" font-size="14.00">+ static GetConfig(): TConfig&amp;</text>
<text xml:space="preserve" text-anchor="start" x="270.25" y="-526" font-family="Arial" font-size="14.00">JSONC, BSONC, YAMLC</text>
<text xml:space="preserve" text-anchor="start" x="270.25" y="-498.25" font-family="Arial" font-size="14.00">XMLC, INIC extensions</text>
<text xml:space="preserve" text-anchor="start" x="270.25" y="-470.5" font-family="Arial" font-size="14.00">Crypt::TOptions::Default()</text>
<polygon fill="#373435" stroke="#373435" points="263.25,-572.5 263.25,-572.5 458.75,-572.5 458.75,-572.5 263.25,-572.5"/>
<polygon fill="#373435" stroke="#373435" points="263.25,-544.75 263.25,-544.75 458.75,-544.75 458.75,-544.75 263.25,-544.75"/>
<polygon fill="none" stroke="#373435" points="263.25,-460.5 263.25,-625.25 458.75,-625.25 458.75,-460.5 263.25,-460.5"/>
</g>
<!-- CryptBackends&#45;&gt;CryptSingletons -->
<!-- Crypt -->
<g id="node17" class="node">
<title>Crypt</title>
<text xml:space="preserve" text-anchor="start" x="693.38" y="-331.95" font-family="Arial" font-weight="bold" font-size="14.00">Crypt namespace</text>
<text xml:space="preserve" text-anchor="start" x="607.12" y="-303.75" font-family="Arial" font-size="14.00">TOptions { Enabled, Password, Salt, Iterations }</text>
<text xml:space="preserve" text-anchor="start" x="607.12" y="-276" font-family="Arial" font-size="14.00">AlgHandle, KeyHandle</text>
<text xml:space="preserve" text-anchor="start" x="607.12" y="-248.25" font-family="Arial" font-size="14.00">LoadBytes / SaveBytes</text>
<text xml:space="preserve" text-anchor="start" x="607.12" y="-220.5" font-family="Arial" font-size="14.00">LoadText / SaveText</text>
<polygon fill="#777777" stroke="#777777" points="600.12,-322.5 600.12,-322.5 899.88,-322.5 899.88,-322.5 600.12,-322.5"/>
<polygon fill="none" stroke="#777777" points="600.12,-210.5 600.12,-351.25 899.88,-351.25 899.88,-210.5 600.12,-210.5"/>
</g>
<!-- CryptBackends&#45;&gt;Crypt -->
<g id="edge27" class="edge">
<title>CryptBackends&#45;&gt;Crypt</title>
<path fill="none" stroke="#373435" stroke-dasharray="5,2" d="M467,-756.24C467,-607.17 467,-337 467,-337 467,-337 590.7,-337 590.7,-337"/>
<polygon fill="#373435" stroke="#373435" points="590.7,-339.8 598.7,-337 590.7,-334.2 590.7,-339.8"/>
<text xml:space="preserve" text-anchor="middle" x="604" y="-539.17" font-family="Arial" font-size="11.00">options / load&#45;save</text>
</g>
<!-- CryptSingletons&#45;&gt;CryptBackends -->
<g id="edge22" class="edge">
<title>CryptSingletons&#45;&gt;CryptBackends</title>
<path fill="none" stroke="#373435" stroke-dasharray="5,2" d="M393.58,-624.97C393.58,-624.97 393.58,-746.52 393.58,-746.52"/>
<polygon fill="#373435" stroke="#373435" points="390.78,-746.52 393.58,-754.52 396.38,-746.52 390.78,-746.52"/>
<text xml:space="preserve" text-anchor="middle" x="441.38" y="-711.55" font-family="Arial" font-size="11.00">constructs</text>
</g>
<!-- CryptSingletons&#45;&gt;Migration -->
<g id="edge24" class="edge">
<title>CryptSingletons&#45;&gt;Migration</title>
<path fill="none" stroke="#373435" stroke-dasharray="5,2" d="M331.75,-460.7C331.75,-460.7 331.75,-319.09 331.75,-319.09"/>
<polygon fill="#373435" stroke="#373435" points="334.55,-319.09 331.75,-311.09 328.95,-319.09 334.55,-319.09"/>
<text xml:space="preserve" text-anchor="middle" x="312.25" y="-388.3" font-family="Arial" font-size="11.00">uses</text>
</g>
<!-- CryptSingletons&#45;&gt;Crypt -->
<g id="edge28" class="edge">
<title>CryptSingletons&#45;&gt;Crypt</title>
<path fill="none" stroke="#373435" stroke-dasharray="5,2" d="M429.5,-460.75C429.5,-398.64 429.5,-324 429.5,-324 429.5,-324 591.03,-324 591.03,-324"/>
<polygon fill="#373435" stroke="#373435" points="591.03,-326.8 599.03,-324 591.03,-321.2 591.03,-326.8"/>
<text xml:space="preserve" text-anchor="middle" x="443.88" y="-388.3" font-family="Arial" font-size="11.00">default options</text>
</g>
<!-- PersistVCL -->
<g id="node13" class="node">
<title>PersistVCL</title>
<text xml:space="preserve" text-anchor="start" x="999.38" y="-1972.58" font-family="Arial" font-weight="bold" font-size="14.00">TPersistFormVCL&lt;CfgSingleton&gt;</text>
<text xml:space="preserve" text-anchor="start" x="1076.25" y="-1947.38" font-family="Arial" font-size="10.00">&lt;&lt;template&gt;&gt;</text>
<text xml:space="preserve" text-anchor="start" x="999.38" y="-1920.38" font-family="Arial" font-size="14.00">: Vcl::Forms::TForm</text>
<text xml:space="preserve" text-anchor="start" x="999.38" y="-1892.62" font-family="Arial" font-size="14.00">&#45; configNode_: TConfigNode&amp;</text>
<text xml:space="preserve" text-anchor="start" x="999.38" y="-1864.88" font-family="Arial" font-size="14.00">+ GetConfigRootNode()</text>
<text xml:space="preserve" text-anchor="start" x="999.38" y="-1837.12" font-family="Arial" font-size="14.00">+ Restore/Save position, size, state</text>
<polygon fill="#373435" stroke="#373435" points="992.38,-1939.12 992.38,-1939.12 1221.62,-1939.12 1221.62,-1939.12 992.38,-1939.12"/>
<polygon fill="#373435" stroke="#373435" points="992.38,-1883.62 992.38,-1883.62 1221.62,-1883.62 1221.62,-1883.62 992.38,-1883.62"/>
<polygon fill="none" stroke="#373435" points="992.38,-1827.12 992.38,-1991.88 1221.62,-1991.88 1221.62,-1827.12 992.38,-1827.12"/>
</g>
<!-- PersistVCL&#45;&gt;TConfigNode -->
<g id="edge31" class="edge">
<title>PersistVCL&#45;&gt;TConfigNode</title>
<path fill="none" stroke="#373435" d="M1232.22,-1910C1232.22,-1910 1336.12,-1910 1336.12,-1910 1336.12,-1910 1336.12,-1267 1336.12,-1267 1336.12,-1267 1387.87,-1267 1438.7,-1267"/>
<polygon fill="none" stroke="#373435" points="1232.06,-1910 1227.26,-1913.2 1222.46,-1910 1227.26,-1906.8 1232.06,-1910"/>
<text xml:space="preserve" text-anchor="middle" x="1737.38" y="-1525.17" font-family="Arial" font-size="11.00">configNode_</text>
</g>
<!-- PersistVCL&#45;&gt;SingletonClasses -->
<g id="edge29" class="edge">
<title>PersistVCL&#45;&gt;SingletonClasses</title>
<path fill="none" stroke="#373435" d="M992.45,-1910C973.94,-1910 960.71,-1910 960.71,-1910 960.71,-1910 960.71,-1183 960.71,-1183 960.71,-1183 487.99,-1183 487.99,-1183"/>
<polygon fill="#373435" stroke="#373435" points="479.99,-1183 487.99,-1179.4 482.77,-1183 487.99,-1183 487.99,-1183 487.99,-1183 482.77,-1183 487.99,-1186.6 479.99,-1183"/>
<text xml:space="preserve" text-anchor="middle" x="145.12" y="-1525.17" font-family="Arial" font-size="11.00">CfgSingleton policy</text>
</g>
<!-- PersistFMX -->
<g id="node14" class="node">
<title>PersistFMX</title>
<text xml:space="preserve" text-anchor="start" x="985.88" y="-1591.95" font-family="Arial" font-weight="bold" font-size="14.00">TPersistFormWinFMX&lt;CfgSingleton&gt;</text>
<text xml:space="preserve" text-anchor="start" x="1076.25" y="-1566.75" font-family="Arial" font-size="10.00">&lt;&lt;template&gt;&gt;</text>
<text xml:space="preserve" text-anchor="start" x="985.88" y="-1539.75" font-family="Arial" font-size="14.00">: Fmx::Forms::TForm</text>
<text xml:space="preserve" text-anchor="start" x="985.88" y="-1512" font-family="Arial" font-size="14.00">&#45; configNode_: TConfigNode&amp;</text>
<text xml:space="preserve" text-anchor="start" x="985.88" y="-1484.25" font-family="Arial" font-size="14.00">+ GetConfigRootNode()</text>
<text xml:space="preserve" text-anchor="start" x="985.88" y="-1456.5" font-family="Arial" font-size="14.00">+ Restore/Save window placement</text>
<polygon fill="#373435" stroke="#373435" points="978.88,-1558.5 978.88,-1558.5 1235.12,-1558.5 1235.12,-1558.5 978.88,-1558.5"/>
<polygon fill="#373435" stroke="#373435" points="978.88,-1503 978.88,-1503 1235.12,-1503 1235.12,-1503 978.88,-1503"/>
<polygon fill="none" stroke="#373435" points="978.88,-1446.5 978.88,-1611.25 1235.12,-1611.25 1235.12,-1446.5 978.88,-1446.5"/>
</g>
<!-- PersistVCL&#45;&gt;PersistFMX -->
<!-- PersistFMX&#45;&gt;TConfigNode -->
<g id="edge32" class="edge">
<title>PersistFMX&#45;&gt;TConfigNode</title>
<path fill="none" stroke="#373435" d="M1221.38,-1436.2C1221.38,-1436.2 1221.38,-1253 1221.38,-1253 1221.38,-1253 1346.59,-1253 1439.03,-1253"/>
<polygon fill="none" stroke="#373435" points="1221.38,-1436.35 1224.58,-1441.15 1221.38,-1445.95 1218.18,-1441.15 1221.38,-1436.35"/>
<text xml:space="preserve" text-anchor="middle" x="1216.38" y="-1318.8" font-family="Arial" font-size="11.00">configNode_</text>
</g>
<!-- PersistFMX&#45;&gt;SingletonClasses -->
<g id="edge30" class="edge">
<title>PersistFMX&#45;&gt;SingletonClasses</title>
<path fill="none" stroke="#373435" d="M1093.25,-1446.78C1093.25,-1329.5 1093.25,-1128 1093.25,-1128 1093.25,-1128 487.87,-1128 487.87,-1128"/>
<polygon fill="#373435" stroke="#373435" points="479.87,-1128 487.87,-1124.4 482.65,-1128 487.87,-1128 487.87,-1128 487.87,-1128 482.65,-1128 487.87,-1131.6 479.87,-1128"/>
<text xml:space="preserve" text-anchor="middle" x="1074.12" y="-1318.8" font-family="Arial" font-size="11.00">CfgSingleton policy</text>
</g>
<!-- Version -->
<g id="node16" class="node">
<title>Version</title>
<text xml:space="preserve" text-anchor="start" x="721.5" y="-580.08" font-family="Arial" font-weight="bold" font-size="14.00">TVersion</text>
<text xml:space="preserve" text-anchor="start" x="706.5" y="-551.88" font-family="Arial" font-size="14.00">Major, Minor</text>
<text xml:space="preserve" text-anchor="start" x="706.5" y="-524.12" font-family="Arial" font-size="14.00">Release, Build</text>
<text xml:space="preserve" text-anchor="start" x="706.5" y="-496.38" font-family="Arial" font-size="14.00">Compare()</text>
<polygon fill="#777777" stroke="#777777" points="699.5,-570.62 699.5,-570.62 800.5,-570.62 800.5,-570.62 699.5,-570.62"/>
<polygon fill="none" stroke="#777777" points="699.5,-486.38 699.5,-599.38 800.5,-599.38 800.5,-486.38 699.5,-486.38"/>
</g>
<!-- FileVersionInfo&#45;&gt;Version -->
<!-- FileVersionInfo&#45;&gt;Version -->
<g id="edge26" class="edge">
<title>FileVersionInfo&#45;&gt;Version</title>
<path fill="none" stroke="#373435" d="M766.83,-782.05C766.83,-782.05 766.83,-608.1 766.83,-608.1"/>
<polygon fill="#373435" stroke="#373435" points="766.83,-600.1 770.43,-608.1 766.83,-602.88 766.83,-608.1 766.83,-608.1 766.83,-608.1 766.83,-602.88 763.23,-608.1 766.83,-600.1"/>
<text xml:space="preserve" text-anchor="middle" x="837.12" y="-711.55" font-family="Arial" font-size="11.00">version fields</text>
</g>
<!-- Version&#45;&gt;Crypt -->
<!-- Patterns -->
<g id="node18" class="node">
<title>Patterns</title>
<polygon fill="#fbf5ff" stroke="none" points="1596.88,-1797.5 1596.88,-2021.5 1979.12,-2021.5 1979.12,-1797.5 1596.88,-1797.5"/>
<text xml:space="preserve" text-anchor="start" x="1737" y="-2002.2" font-family="Arial" font-weight="bold" font-size="14.00">Design patterns</text>
<text xml:space="preserve" text-anchor="start" x="1603.88" y="-1974.45" font-family="Arial" font-weight="bold" font-size="14.00">Template Method</text>
<text xml:space="preserve" text-anchor="start" x="1715.62" y="-1974.45" font-family="Arial" font-size="14.00">: TConfig hooks implemented by backends</text>
<text xml:space="preserve" text-anchor="start" x="1603.88" y="-1946.7" font-family="Arial" font-weight="bold" font-size="14.00">Composite</text>
<text xml:space="preserve" text-anchor="start" x="1674.38" y="-1946.7" font-family="Arial" font-size="14.00">: TConfigNode tree owns child nodes</text>
<text xml:space="preserve" text-anchor="start" x="1603.88" y="-1918.95" font-family="Arial" font-weight="bold" font-size="14.00">Facade</text>
<text xml:space="preserve" text-anchor="start" x="1650.38" y="-1918.95" font-family="Arial" font-size="14.00">: TConfig*Singleton hides setup details</text>
<text xml:space="preserve" text-anchor="start" x="1603.88" y="-1891.2" font-family="Arial" font-weight="bold" font-size="14.00">Singleton</text>
<text xml:space="preserve" text-anchor="start" x="1665.38" y="-1891.2" font-family="Arial" font-size="14.00">: function&#45;local static backend instance</text>
<text xml:space="preserve" text-anchor="start" x="1603.88" y="-1863.45" font-family="Arial" font-weight="bold" font-size="14.00">Decorator / Wrapper</text>
<text xml:space="preserve" text-anchor="start" x="1733.62" y="-1863.45" font-family="Arial" font-size="14.00">: *Crypt::TConfig wraps file backends</text>
<text xml:space="preserve" text-anchor="start" x="1603.88" y="-1835.7" font-family="Arial" font-weight="bold" font-size="14.00">RAII</text>
<text xml:space="preserve" text-anchor="start" x="1630.88" y="-1835.7" font-family="Arial" font-size="14.00">: backend helper objects own resources</text>
<text xml:space="preserve" text-anchor="start" x="1603.88" y="-1807.95" font-family="Arial" font-weight="bold" font-size="14.00">Policy / Template</text>
<text xml:space="preserve" text-anchor="start" x="1714.12" y="-1807.95" font-family="Arial" font-size="14.00">: PersistForm takes CfgSingleton policy</text>
<polygon fill="#6a1b9a" stroke="#6a1b9a" points="1596.88,-1992.75 1596.88,-1992.75 1979.12,-1992.75 1979.12,-1992.75 1596.88,-1992.75"/>
<polygon fill="none" stroke="#6a1b9a" points="1596.88,-1797.5 1596.88,-2021.5 1979.12,-2021.5 1979.12,-1797.5 1596.88,-1797.5"/>
</g>
<!-- Patterns&#45;&gt;TConfig -->
<g id="edge33" class="edge">
<title>Patterns&#45;&gt;TConfig</title>
<path fill="none" stroke="#6a1b9a" stroke-dasharray="1,5" d="M1602,-1797.62C1602,-1765.27 1602,-1729.25 1602,-1694.37"/>
<text xml:space="preserve" text-anchor="middle" x="1828.5" y="-1753.05" font-family="Arial" font-size="11.00" fill="#6a1b9a">pattern summary</text>
</g>
</g>
</svg>
